<?xml version="1.0" encoding="UTF-8"?>
<svg width="256px" height="256px" viewBox="0 0 256 256" version="1.1" xmlns="http://www.w3.org/2000/svg">
    <g>
        <circle fill="#000000" cx="128" cy="128" r="128"/>
        <path d="M90.4,72 L165.6,72 C169.8,72 173.2,75.4 173.2,79.6 L173.2,176.4 C173.2,180.6 169.8,184 165.6,184 L90.4,184 C86.2,184 82.8,180.6 82.8,176.4 L82.8,79.6 C82.8,75.4 86.2,72 90.4,72 Z M128,162.4 C145.8,162.4 160.4,147.8 160.4,130 C160.4,112.2 145.8,97.6 128,97.6 C110.2,97.6 95.6,112.2 95.6,130 C95.6,147.8 110.2,162.4 128,162.4 Z" fill="#FFFFFF"/>
    </g>
</svg>
