<?xml version="1.0" encoding="UTF-8"?>
<svg width="512" height="512" viewBox="0 0 512 512" fill="none" xmlns="http://www.w3.org/2000/svg">
    <path d="M256 0C397.385 0 512 114.615 512 256C512 397.385 397.385 512 256 512C114.615 512 0 397.385 0 256C0 114.615 114.615 0 256 0Z" fill="#3ECF8E"/>
    <path d="M318.054 372.654C306.683 386.863 278.257 383.001 255.731 383.001C226.401 383.001 205.703 385.675 194.332 371.466C184.865 359.577 184.865 338.034 184.865 319.353V187.001H327.521V319.353C327.521 338.034 327.521 360.765 318.054 372.654Z" fill="white"/>
    <path d="M194.332 139.347C205.703 125.138 234.129 129 256.655 129C285.985 129 306.683 126.326 318.054 140.535C327.521 152.424 327.521 173.967 327.521 192.648V325H184.865V192.648C184.865 173.967 184.865 151.236 194.332 139.347Z" fill="white" fill-opacity="0.2"/>
</svg>
