<?xml version="1.0" encoding="UTF-8"?>
<svg width="512" height="512" viewBox="0 0 512 512" fill="none" xmlns="http://www.w3.org/2000/svg">
    <rect width="512" height="512" rx="50" fill="#3178C6"/>
    <path d="M317.219 354.848V380.558C325.178 384.866 334.237 388.066 344.397 390.157C354.557 392.248 365.197 393.293 376.318 393.293C387.077 393.293 397.117 392.128 406.438 389.797C415.758 387.466 423.797 383.878 430.557 379.032C437.317 374.186 442.577 368.022 446.337 360.541C450.097 353.06 451.977 344.138 451.977 333.776C451.977 326.295 450.817 319.573 448.497 313.609C446.177 307.645 442.817 302.24 438.417 297.394C434.017 292.548 428.697 288.181 422.457 284.293C416.217 280.405 409.217 276.757 401.457 273.348C395.377 270.777 389.897 268.326 385.017 265.996C380.137 263.665 375.957 261.374 372.477 259.123C368.997 256.872 366.317 254.541 364.437 252.13C362.557 249.719 361.617 247.068 361.617 244.178C361.617 241.527 362.317 239.156 363.717 237.065C365.117 234.974 367.117 233.163 369.717 231.632C372.317 230.101 375.437 228.93 379.077 228.119C382.717 227.308 386.757 226.903 391.197 226.903C394.517 226.903 398.017 227.188 401.697 227.759C405.377 228.33 409.097 229.175 412.857 230.296C416.617 231.417 420.337 232.822 424.017 234.513C427.697 236.204 431.177 238.175 434.457 240.426V216.501C426.937 213.611 419.137 211.48 411.057 210.109C402.977 208.738 393.817 208.053 383.577 208.053C372.977 208.053 363.097 209.258 353.937 211.669C344.777 214.08 336.777 217.729 329.937 222.615C323.097 227.501 317.717 233.585 313.797 240.866C309.877 248.147 307.917 256.669 307.917 266.432C307.917 278.353 311.157 288.661 317.637 297.354C324.117 306.047 333.997 313.649 347.277 320.16C353.517 322.891 359.357 325.462 364.797 327.873C370.237 330.284 375.037 332.735 379.197 335.226C383.357 337.717 386.717 340.367 389.277 343.177C391.837 345.987 393.117 349.116 393.117 352.563C393.117 355.054 392.417 357.345 391.017 359.436C389.617 361.527 387.617 363.298 385.017 364.749C382.417 366.2 379.277 367.321 375.597 368.112C371.917 368.903 367.797 369.298 363.237 369.298C354.397 369.298 345.677 367.687 337.077 364.464C328.477 361.241 321.177 357.345 315.177 352.776L317.219 354.848Z" fill="white"/>
    <path d="M233.419 250.448H290.419V230.448H153.419V250.448H210.019V392.448H233.419V250.448Z" fill="white"/>
</svg>
